<svg width="68" height="76" viewBox="0 0 68 76" fill="none" xmlns="http://www.w3.org/2000/svg"  style="background-color: rgba(2, 105, 128, 1);">
<path d="M63.0509 56.2511C60.7028 56.2511 58.733 57.8952 58.2285 60.0922H34.3579V58.8278C34.3579 57.6213 33.4966 56.5704 32.3098 56.3288C30.7641 56.0131 29.2633 55.5079 27.8414 54.8248C23.236 52.6153 19.767 48.7446 18.0728 43.9257C16.3787 39.1069 16.6628 33.9168 18.8723 29.3114C21.4843 23.8673 26.3807 20.0518 32.3061 18.8433C33.495 18.6006 34.3579 17.5491 34.3579 16.3428V14.8415H58.2285C58.733 17.0385 60.7028 18.6826 63.0509 18.6826C65.7798 18.6826 67.9999 16.4626 67.9999 13.7337C67.9999 11.0048 65.7798 8.78477 63.0509 8.78477C60.7028 8.78477 58.733 10.4289 58.2285 12.6259H34.3579V6.61895H44.9349C45.4394 8.81609 47.4092 10.4601 49.7573 10.4601C52.4862 10.4601 54.7062 8.24003 54.7062 5.51115C54.7062 2.78227 52.4862 0.562237 49.7573 0.562237C47.4092 0.562237 45.4394 2.20636 44.9349 4.40335H34.3579V2.69424C34.3579 1.95703 34.0393 1.25602 33.4837 0.770799C33.2106 0.532066 32.8895 0.35456 32.542 0.250207C32.1946 0.145854 31.8288 0.117071 31.4693 0.165792C28.3139 0.594261 25.224 1.41383 22.271 2.60561C21.4002 2.9573 20.7062 3.66334 20.3675 4.54249C20.199 4.9819 20.1221 5.45117 20.1417 5.9214C20.1614 6.39163 20.2771 6.85286 20.4817 7.27669L22.4756 11.3893C22.7499 11.9553 22.5443 12.6435 22.0071 12.9559C19.5582 14.3798 17.3347 16.1602 15.4098 18.2386C14.9913 18.6906 14.278 18.7395 13.7863 18.3506L10.2059 15.5192C9.83726 15.2284 9.41294 15.0164 8.95914 14.896C8.50534 14.7757 8.03168 14.7496 7.56742 14.8195C7.10098 14.8912 6.65418 15.0577 6.25457 15.3087C5.85497 15.5598 5.51104 15.89 5.24399 16.2791C3.0024 19.5513 1.28203 23.1515 0.144273 26.9512C0.00931347 27.4034 -0.0315586 27.8785 0.024178 28.3471C0.0799146 28.8157 0.231078 29.2679 0.468341 29.6758C0.705733 30.0809 1.02361 30.433 1.40236 30.7105C1.78111 30.988 2.2127 31.1849 2.6705 31.2891L7.12297 32.2957C7.73477 32.4339 8.14436 33.0198 8.05559 33.629C7.64758 36.4324 7.65893 39.2809 8.08927 42.081C8.18336 42.6951 7.77716 43.2874 7.16448 43.4295L2.71274 44.4614C2.2557 44.5681 1.82534 44.7672 1.4482 45.0465C1.07106 45.3259 0.755133 45.6795 0.519891 46.0856C0.284769 46.4947 0.135923 46.9477 0.0825256 47.4165C0.029128 47.8853 0.0723102 48.3602 0.209411 48.8117C1.36564 52.6087 3.10636 56.2024 5.36895 59.4635C5.63833 59.851 5.98424 60.1792 6.38534 60.4278C6.78644 60.6765 7.23424 60.8403 7.7011 60.9091C8.1658 60.9761 8.63929 60.9472 9.09236 60.8241C9.54544 60.701 9.9685 60.4864 10.3354 60.1935L13.9225 57.3214C14.4117 56.9296 15.1282 56.9772 15.5541 57.4299C15.9637 57.8654 16.5028 58.3578 17.1562 58.8935C17.3835 59.0798 17.6754 59.1682 17.9677 59.1393C18.2601 59.1103 18.529 58.9664 18.7153 58.7392C18.9016 58.512 18.99 58.2201 18.961 57.9277C18.9321 57.6353 18.7881 57.3664 18.5609 57.1801C17.981 56.7048 17.5124 56.2781 17.1681 55.9122C15.9564 54.6238 13.9224 54.483 12.5378 55.592L8.9507 58.4642C8.82161 58.5684 8.67226 58.6447 8.51212 58.6882C8.35198 58.7318 8.18455 58.7415 8.02044 58.7169C7.85372 58.6931 7.69375 58.635 7.55068 58.5462C7.4076 58.4574 7.28454 58.3398 7.18929 58.2009C5.05785 55.1286 3.41799 51.7429 2.32871 48.1657C2.27871 48.0049 2.26267 47.8354 2.28161 47.6681C2.30056 47.5007 2.35407 47.3391 2.43875 47.1935C2.52102 47.0495 2.63232 46.9242 2.76558 46.8255C2.89884 46.7267 3.05116 46.6568 3.21288 46.62L7.66461 45.5881C9.39943 45.1861 10.5478 43.4981 10.279 41.7454C9.88213 39.1623 9.87167 36.5345 10.248 33.9484C10.5022 32.2016 9.34404 30.5265 7.61129 30.1347L3.15897 29.1281C2.99693 29.0922 2.84412 29.023 2.71022 28.925C2.57633 28.8269 2.46427 28.7021 2.38114 28.5584C2.29575 28.4133 2.24146 28.2521 2.2217 28.0849C2.20194 27.9177 2.21716 27.7482 2.26638 27.5872C3.33854 24.0068 4.95965 20.6144 7.07187 17.5309C7.16622 17.3915 7.28853 17.2732 7.43102 17.1836C7.57351 17.0939 7.73309 17.0348 7.89961 17.0101C8.06357 16.9845 8.23105 16.9932 8.39145 17.0358C8.55184 17.0783 8.70165 17.1537 8.83135 17.2572L12.4118 20.0886C13.8052 21.1904 15.8359 21.0393 17.0353 19.7442C18.8111 17.8269 20.8622 16.1846 23.1214 14.871C24.654 13.9792 25.246 12.0253 24.4692 10.4228L22.4755 6.3101C22.4019 6.15986 22.3603 5.99597 22.3533 5.82882C22.3464 5.66166 22.3742 5.49489 22.4351 5.33907C22.5558 5.02564 22.7923 4.78458 23.1008 4.65992C25.8833 3.53707 28.7947 2.76488 31.7678 2.36116C31.8141 2.35446 31.8612 2.35802 31.906 2.37157C31.9507 2.38513 31.9919 2.40835 32.0266 2.43959C32.0699 2.4774 32.1424 2.56071 32.1424 2.69409V16.3428C32.1424 16.5033 32.0277 16.6388 31.8633 16.6723C25.2525 18.0206 19.7896 22.2781 16.8749 28.353C14.4092 33.4918 14.0924 39.2833 15.9827 44.6605C17.8731 50.0376 21.7442 54.3569 26.883 56.8224C28.4694 57.5843 30.1436 58.1476 31.8678 58.4998C32.0294 58.5327 32.1423 58.6675 32.1423 58.8278V72.8777C32.1423 73.0109 32.0699 73.0942 32.0268 73.132C31.9923 73.1633 31.9514 73.1865 31.9069 73.2001C31.8624 73.2137 31.8155 73.2174 31.7695 73.2108C28.8741 72.8248 26.0206 72.0739 23.2877 70.9788C23.1353 70.9181 22.9972 70.8266 22.882 70.7099C22.7667 70.5932 22.677 70.4539 22.6183 70.3008C22.557 70.1456 22.5285 69.9793 22.5347 69.8125C22.5409 69.6458 22.5816 69.4821 22.6542 69.3318L22.6607 69.3181L24.9066 64.4531C25.4906 63.188 25.0442 61.6695 23.8679 60.921C23.1435 60.4606 22.4264 59.9887 21.717 59.5055C21.5968 59.4235 21.4616 59.366 21.3192 59.3362C21.1768 59.3065 21.0299 59.3051 20.887 59.3321C20.744 59.3591 20.6078 59.4141 20.4861 59.4938C20.3643 59.5735 20.2595 59.6764 20.1776 59.7966C20.0956 59.9168 20.0381 60.052 20.0084 60.1944C19.9787 60.3368 19.9773 60.4837 20.0043 60.6266C20.0314 60.7696 20.0863 60.9058 20.166 61.0275C20.2456 61.1492 20.3485 61.2541 20.4687 61.336C21.1976 61.8324 21.9343 62.3172 22.6786 62.7902C22.7971 62.866 22.8842 62.982 22.924 63.1169C22.9638 63.2518 22.9535 63.3965 22.8951 63.5244L20.6522 68.383C20.4517 68.8063 20.3397 69.266 20.3228 69.7341C20.3059 70.2022 20.3846 70.6688 20.5541 71.1055C20.896 71.9827 21.592 72.6861 22.4636 73.0354C25.3671 74.1989 28.3997 74.9968 31.4769 75.407C31.8358 75.4546 32.2007 75.425 32.5473 75.3202C32.8939 75.2154 33.214 75.0377 33.4864 74.7992C33.7602 74.5595 33.9796 74.2641 34.1299 73.9327C34.2802 73.6013 34.358 73.2417 34.358 72.8778V70.5305H44.935C45.4396 72.7275 47.4094 74.3716 49.7575 74.3716C52.4864 74.3716 54.7064 72.1516 54.7064 69.4227C54.7064 66.6938 52.4864 64.4738 49.7575 64.4738C47.4094 64.4738 45.4396 66.1179 44.935 68.3149H34.358V62.3079H58.2286C58.7332 64.5051 60.703 66.149 63.0511 66.149C65.78 66.149 68 63.929 68 61.2001C68 58.4712 65.7797 56.2511 63.0509 56.2511ZM63.0509 11.0002C64.5581 11.0002 65.7843 12.2263 65.7843 13.7335C65.7843 15.2407 64.5581 16.4669 63.0509 16.4669C61.5437 16.4669 60.3175 15.2407 60.3175 13.7335C60.3175 12.2263 61.5437 11.0002 63.0509 11.0002ZM49.7573 2.77784C51.2645 2.77784 52.4906 4.00395 52.4906 5.51115C52.4906 7.01835 51.2645 8.24446 49.7573 8.24446C48.2501 8.24446 47.0239 7.01835 47.0239 5.51115C47.0239 4.00395 48.2501 2.77784 49.7573 2.77784ZM49.7573 66.6891C51.2645 66.6891 52.4906 67.9152 52.4906 69.4224C52.4906 70.9296 51.2645 72.1557 49.7573 72.1557C48.2501 72.1557 47.0239 70.9296 47.0239 69.4224C47.0239 67.9152 48.2501 66.6891 49.7573 66.6891ZM63.0509 63.9334C61.5437 63.9334 60.3175 62.7073 60.3175 61.2001C60.3175 59.6929 61.5437 58.4668 63.0509 58.4668C64.5581 58.4668 65.7843 59.6929 65.7843 61.2001C65.7843 62.7073 64.5581 63.9334 63.0509 63.9334Z" fill="white"/>
<path d="M35.2698 33.9832C35.8817 33.9832 36.3776 33.4872 36.3776 32.8754C36.3776 32.2636 35.8817 31.7676 35.2698 31.7676H31.2582C30.9644 31.7676 30.6826 31.8843 30.4749 32.0921C30.2671 32.2998 30.1504 32.5816 30.1504 32.8754V42.3959C30.1504 42.6897 30.2671 42.9714 30.4749 43.1792C30.6826 43.3869 30.9644 43.5037 31.2582 43.5037H35.2698C35.8817 43.5037 36.3776 43.0077 36.3776 42.3959C36.3776 41.7841 35.8817 41.2881 35.2698 41.2881H32.366V38.7434H34.9739C35.5859 38.7434 36.0817 38.2474 36.0817 37.6356C36.0817 37.0238 35.5859 36.5278 34.9739 36.5278H32.366V33.9831H35.2698V33.9832ZM47.6169 35.3287C47.6169 33.3408 45.9363 31.7238 43.8707 31.7238H41.3144C41.0206 31.7238 40.7388 31.8405 40.531 32.0482C40.3233 32.256 40.2066 32.5377 40.2066 32.8316V42.4397C40.2066 43.0515 40.7024 43.5475 41.3144 43.5475C41.9263 43.5475 42.4222 43.0515 42.4222 42.4397V39.4729L45.6775 43.1716C45.7814 43.2899 45.9094 43.3847 46.0529 43.4495C46.1964 43.5143 46.352 43.5477 46.5095 43.5475C46.7226 43.5474 46.9311 43.4859 47.1101 43.3703C47.289 43.2547 47.4309 43.09 47.5186 42.8958C47.6063 42.7017 47.6362 42.4863 47.6046 42.2756C47.5731 42.0649 47.4814 41.8678 47.3406 41.7078L44.7999 38.8211C46.4175 38.4224 47.6169 37.008 47.6169 35.3287ZM43.8706 36.718C43.5375 36.718 42.958 36.7205 42.4366 36.723C42.4338 36.213 42.4315 35.6507 42.4315 35.3288C42.4315 35.0559 42.43 34.4736 42.4285 33.9395H43.8707C44.7004 33.9395 45.4013 34.5757 45.4013 35.3288C45.4013 36.0818 44.7004 36.718 43.8706 36.718ZM51.7472 42.4399C51.7472 43.0517 52.243 43.5477 52.855 43.5477C53.4669 43.5477 53.9628 43.0517 53.9628 42.4399V39.3682C54.5245 39.3652 55.1675 39.3624 55.5302 39.3624C57.6653 39.3624 59.4025 37.6492 59.4025 35.5432C59.4025 33.4373 57.6653 31.7239 55.5302 31.7239H52.855C52.7092 31.7239 52.5649 31.7527 52.4302 31.8086C52.2956 31.8645 52.1733 31.9464 52.0704 32.0497C51.9675 32.1529 51.886 32.2754 51.8305 32.4102C51.7751 32.5451 51.7467 32.6895 51.7472 32.8352V42.4399ZM55.5302 33.9395C56.4283 33.9395 57.1869 34.6739 57.1869 35.5432C57.1869 36.4124 56.4283 37.1468 55.5302 37.1468C55.1701 37.1468 54.5348 37.1496 53.9752 37.1526C53.9722 36.5747 53.9677 34.5441 53.966 33.9397H55.5302V33.9395Z" fill="white"/>
<path d="M42.4731 25.7624H34.2908C27.6623 25.7624 22.2695 31.155 22.2695 37.7835C22.2695 44.412 27.6623 49.8048 34.2908 49.8048H54.3762C61.0047 49.8048 66.3975 44.4121 66.3975 37.7835C66.3975 31.155 61.0047 25.7624 54.3762 25.7624H46.9042C46.2923 25.7624 45.7964 26.2584 45.7964 26.8702C45.7964 27.482 46.2923 27.978 46.9042 27.978H54.3762C59.783 27.978 64.1819 32.3767 64.1819 37.7835C64.1819 43.1903 59.7832 47.5892 54.3762 47.5892H34.2908C28.884 47.5892 24.4851 43.1903 24.4851 37.7835C24.4851 32.3767 28.8838 27.978 34.2908 27.978H42.4731C42.767 27.978 43.0487 27.8613 43.2565 27.6535C43.4642 27.4458 43.5809 27.164 43.5809 26.8702C43.5809 26.5764 43.4642 26.2946 43.2565 26.0869C43.0487 25.8791 42.767 25.7624 42.4731 25.7624Z" fill="white"/>
</svg>
